<?xml version="1.0" encoding="UTF-8"?>
<!DOCTYPE svg PUBLIC "-//W3C//DTD SVG 1.1//EN" "http://www.w3.org/Graphics/SVG/1.1/DTD/svg11.dtd">
<svg xmlns="http://www.w3.org/2000/svg" version="1.1" width="100px" height="100px" style="shape-rendering:geometricPrecision; text-rendering:geometricPrecision; image-rendering:optimizeQuality; fill-rule:evenodd; clip-rule:evenodd" xmlns:xlink="http://www.w3.org/1999/xlink">
<g><path style="opacity:0.901" fill="#444b54" d="M 1.5,-0.5 C 10.5,-0.5 19.5,-0.5 28.5,-0.5C 36.5685,0.808357 41.7352,5.47502 44,13.5C 44.6667,38.1667 44.6667,62.8333 44,87.5C 42.6439,88.3802 41.1439,88.7135 39.5,88.5C 39.756,92.2693 39.4227,95.9359 38.5,99.5C 32.8333,99.5 27.1667,99.5 21.5,99.5C 20.5773,95.9359 20.244,92.2693 20.5,88.5C 14.1579,88.6662 7.82458,88.4995 1.5,88C 0.955796,87.2828 0.28913,86.7828 -0.5,86.5C -0.5,85.8333 -0.5,85.1667 -0.5,84.5C 12.2523,82.5483 25.2523,81.8816 38.5,82.5C 38.5,76.5 38.5,70.5 38.5,64.5C 25.4206,64.8137 12.4206,64.4803 -0.5,63.5C -0.5,62.5 -0.5,61.5 -0.5,60.5C 12.4206,59.5197 25.4206,59.1863 38.5,59.5C 38.5,46.8333 38.5,34.1667 38.5,21.5C 26.1622,21.6665 13.8288,21.4999 1.5,21C 0.955796,20.2828 0.28913,19.7828 -0.5,19.5C -0.5,18.5 -0.5,17.5 -0.5,16.5C 12.425,15.6854 25.425,15.1854 38.5,15C 36.8591,10.6924 33.8591,7.6924 29.5,6C 19.4234,5.80865 9.4234,5.30865 -0.5,4.5C -0.5,3.5 -0.5,2.5 -0.5,1.5C 0.5,1.16667 1.16667,0.5 1.5,-0.5 Z M 25.5,88.5 C 28.5,88.5 31.5,88.5 34.5,88.5C 34.5,90.1667 34.5,91.8333 34.5,93.5C 31.5,93.5 28.5,93.5 25.5,93.5C 25.5,91.8333 25.5,90.1667 25.5,88.5 Z"/></g>
<g><path style="opacity:0.95" fill="#2096f2" d="M 71.5,-0.5 C 72.5,-0.5 73.5,-0.5 74.5,-0.5C 75.1495,12.7712 75.8162,26.1045 76.5,39.5C 82.6995,42.2347 84.8662,46.9014 83,53.5C 76.275,62.8041 69.6083,62.8041 63,53.5C 61.1024,46.2866 63.6024,41.62 70.5,39.5C 70.1858,26.0875 70.5192,12.7541 71.5,-0.5 Z M 71.5,44.5 C 77.0226,44.5619 78.856,47.2286 77,52.5C 72.626,55.5433 69.7926,54.5433 68.5,49.5C 68.3227,47.0321 69.3227,45.3654 71.5,44.5 Z"/></g>
<g><path style="opacity:0.94" fill="#2197f3" d="M 70.5,66.5 C 72.1667,66.5 73.8333,66.5 75.5,66.5C 75.666,71.8437 75.4994,77.1771 75,82.5C 73.6439,83.3802 72.1439,83.7135 70.5,83.5C 70.5,77.8333 70.5,72.1667 70.5,66.5 Z"/></g>
<g><path style="opacity:0.891" fill="#434a54" d="M 27.5,70.5 C 33.5548,69.9421 34.8881,72.1088 31.5,77C 26.7915,77.082 25.4582,74.9154 27.5,70.5 Z"/></g>
<g><path style="opacity:0.946" fill="#2095f2" d="M 74.5,99.5 C 73.5,99.5 72.5,99.5 71.5,99.5C 70.4309,96.592 70.2642,93.592 71,90.5C 72.3333,89.1667 73.6667,89.1667 75,90.5C 75.7358,93.592 75.5691,96.592 74.5,99.5 Z"/></g>
</svg>
