<?xml version="1.0" encoding="UTF-8"?>
<svg id="Layer_1" data-name="Layer 1" xmlns="http://www.w3.org/2000/svg" viewBox="0 0 60 60">
  <defs>
    <style>
      .cls-1 {
        fill: #2c94cd;
      }
    </style>
  </defs>
  <path class="cls-1" d="M40.81,11.74c-1.57-.09-3.13-.3-4.7-.41-1.75-.12-3.5-.23-5.25-.27-3.85-.09-7.68,.24-11.49,.67-.97,.11-1.86,.31-2.62,.92-1.01,.82-1.55,1.89-1.55,3.18-.01,8.03-.01,16.06,0,24.1,0,1.49,.68,2.66,1.96,3.47,.19,.12,.26,.25,.26,.48,0,1.18,.04,2.36,0,3.55,0,.72,.21,1.25,.93,1.54h2.21c.78-.33,1-.67,1-1.46v-3.53h16.88v1.1c0,.8,.01,1.59,0,2.38-.02,.72,.27,1.23,1.04,1.51h2.25c.7-.27,.94-.78,.93-1.5-.02-1.27,.01-2.53,.02-3.8,0-.19,.05-.32,.23-.43,1.26-.83,1.92-2.02,1.92-3.52,0-7.94,0-15.88,0-23.82,0-2.26-1.74-4.01-4-4.15Zm-17.64,.99c.19-.1,.44-.16,.65-.16,4.11,0,8.23,0,12.35,0,.72,0,1.21,.48,1.21,1.13,0,.65-.5,1.1-1.23,1.1h-12.35c-.59,0-1.01-.31-1.15-.83-.14-.47,.07-1,.52-1.24Zm-3.77,25.66c-1.09,0-1.95-.89-1.95-1.98,0-1.07,.9-1.93,1.97-1.93,1.08,0,1.99,.9,1.98,1.97,0,1.07-.92,1.96-2,1.95Zm14.92,.13c-1.44,0-2.89,0-4.33,0s-2.86,0-4.3,0c-.34,0-.64-.09-.81-.42-.21-.38,0-.88,.42-1,.15-.04,.31-.05,.46-.05,2.81,0,5.63,0,8.45,0,.58,0,.91,.23,.95,.64,.05,.49-.28,.82-.84,.82Zm.65-2.74c-.15,.13-.38,.23-.57,.23-2.93,.01-5.87,0-8.81,0-.48,0-.77-.3-.77-.74,0-.42,.3-.7,.77-.7,1.47-.01,2.94,0,4.4,0h4.41c.33,0,.59,.13,.72,.42,.12,.28,.1,.59-.15,.79Zm5.59,2.61c-1.07,0-1.97-.89-1.97-1.94,0-1.09,.92-1.98,2.02-1.97,1.07,.01,1.93,.89,1.93,1.96,0,1.09-.89,1.97-1.97,1.95Zm2.62-12.14c0,1.26-.72,1.97-2.02,1.97H18.83c-1.3,0-2.01-.7-2.02-2,0-2.85,.02-5.7,0-8.56-.01-1.14,.82-1.97,1.99-1.96,3.75,.04,7.49,.02,11.24,.02s7.47,.02,11.21-.02c1.1,0,1.96,.79,1.95,1.93-.02,2.87,0,5.74,0,8.62Z"/>
  <path class="cls-1" d="M30,3.86c14.56,0,26.36,11.7,26.36,26.14s-11.8,26.14-26.36,26.14S3.64,44.44,3.64,30,15.44,3.86,30,3.86m0-2.61C14.01,1.25,1,14.15,1,30s13.01,28.75,29,28.75,29-12.9,29-28.75S45.99,1.25,30,1.25h0Z"/>
</svg>